<?xml version="1.0" encoding="utf-8"?>
<!-- Generator: Adobe Illustrator 16.0.0, SVG Export Plug-In . SVG Version: 6.00 Build 0)  -->
<!DOCTYPE svg PUBLIC "-//W3C//DTD SVG 1.1//EN" "http://www.w3.org/Graphics/SVG/1.1/DTD/svg11.dtd">
<svg version="1.1" id="Layer_1" xmlns="http://www.w3.org/2000/svg" xmlns:xlink="http://www.w3.org/1999/xlink" x="0px" y="0px"
	 width="1109.868px" height="308px" viewBox="0 0 1109.868 308" enable-background="new 0 0 1109.868 308" xml:space="preserve">
<g>
	<g id="logo">
		<g transform="translate(0.000000,308.000000) scale(0.100000,-0.100000)">
			<path d="M8872.094,3032.173c-358.994-37.998-721.992-260-907.988-555.996c-41.006-65-23.008-61.001-167.002-36.001
				c-121.006,21.997-311.006-8.003-427.998-67.002c-210-106.001-365-303.999-410-523.999l-12.002-61.001l-80-31.997
				c-165-67.001-307.002-182.001-404.004-326.997c-340-508.008-73.994-1192.012,521.006-1340.996
				c72.998-18.008,130-22.012,462.998-29.004c737.002-17.012,2007.002-23.008,2309.99-10.996c319.004,11.992,384.004,20,495,56.992
				c443.008,150.996,729.004,565,707.012,1024.004c-20,417.993-283.008,775.996-679.004,924.995
				c-45.996,17.002-45.996,17.002-73.008,102.002c-77.988,251.997-236.992,475.996-450,635c-95,70.996-290.996,168.999-395,197.998
				C9210.102,3031.177,9018.09,3048.174,8872.094,3032.173z"/>
		</g>
	</g>
	<g id="name">
		<g>
			<path d="M121.259,92.333c-1.641-2.068-2.375-2.881-4.554-5.029c-4.897-4.833-11.716-9.025-18.131-11.145
				c-3.258-1.079-5.999-1.65-9.987-2.075c-0.99-0.104-4.816-0.117-37.928-0.141l-36.82-0.02l0.015,86.881l0.023,86.887l2.439,0.006
				h2.435v-34.131v-34.139l35.463-0.021c38.348-0.029,35.611,0,38.427-0.381c4.547-0.615,8.87-1.965,12.919-4.02
				c2.551-1.299,5.308-3.016,7.332-4.561c4.956-3.787,8.961-8.264,12.384-13.842c0.364-0.604,0.668-1.107,0.668-1.123
				c0-0.014,0.139-0.262,0.315-0.557c1.18-2.002,2.697-5.342,3.804-8.379c4.079-11.159,4.592-23.602,1.416-34.46
				C129.338,104.781,125.972,98.272,121.259,92.333z M128.451,130.671c-0.556,6.284-1.979,11.87-4.486,17.631
				c-0.47,1.071-1.68,3.504-1.775,3.564c-0.036,0.023-0.066,0.067-0.066,0.097c0.022,0.146-1.496,2.742-2.353,4.027
				c-3.483,5.211-7.14,8.922-11.973,12.125c-2.221,1.473-4.737,2.807-6.966,3.701c-2.779,1.117-5.946,1.938-8.995,2.326
				c-2.692,0.352-1.102,0.336-38.111,0.336H18.788l-0.021-47.788l-0.015-47.784h33.859c22.656,0,34.19,0.021,34.848,0.073
				c7.055,0.542,13.316,2.815,19.753,7.17c1.922,1.298,3.798,2.764,5.36,4.201c1.556,1.424,3.969,3.991,5.083,5.418
				c0.207,0.264,0.424,0.541,0.492,0.623c1.956,2.463,3.987,5.749,5.526,8.931c2.719,5.631,4.158,10.822,4.78,17.246
				C128.575,123.86,128.575,129.265,128.451,130.671z"/>
			<path d="M364.122,232.74c1.664,1.473,3.426,2.881,5.947,4.729c0.857,0.629,4.062,2.713,5.03,3.277
				c0.374,0.223,1.078,0.631,1.562,0.908c2.104,1.232,5.637,3.006,7.664,3.857c6.207,2.602,12.565,4.002,20.6,4.539
				c1.798,0.115,7.077,0.115,8.799,0c6.319-0.441,12.377-1.533,17.56-3.184c1.67-0.529,4.617-1.65,5.644-2.148
				c0.126-0.059,0.733-0.344,1.356-0.645c1.167-0.551,3.154-1.621,3.858-2.068c0.218-0.141,0.411-0.258,0.425-0.258
				c0.015,0,0.424-0.266,0.916-0.586c5.278-3.482,9.921-8.938,11.951-14.062c1.796-4.539,2.47-10,1.914-15.557
				c-0.27-2.633-0.931-5.393-1.848-7.701c-1.818-4.568-5.601-9.232-10.139-12.5c-0.323-0.238-0.58-0.457-0.565-0.492
				c0.007-0.037-0.015-0.053-0.05-0.029c-0.038,0.023-0.369-0.152-0.736-0.396c-1.947-1.283-5.219-2.926-7.85-3.938
				c-0.838-0.318-3.005-1.037-4.144-1.375c-6.519-1.906-15.559-3.037-24.379-3.043c-4.23,0-10.072-0.617-14.325-1.512
				c-6.527-1.371-12.493-4.076-16.429-7.457c-0.28-0.248-0.508-0.477-0.494-0.514c0.008-0.029-0.006-0.043-0.041-0.021
				c-0.073,0.043-1.805-1.695-2.442-2.447c-1.604-1.893-3.086-4.264-3.916-6.271c-0.924-2.215-1.546-4.867-1.848-7.77
				c-0.154-1.496-0.168-5.187-0.034-6.489c0.423-4.084,1.51-7.391,3.362-10.302c0.674-1.056,1.035-1.54,1.129-1.519
				c0.043,0.007,0.058-0.013,0.031-0.057c-0.043-0.075,0.073-0.244,0.8-1.138c1.033-1.282,3.681-3.851,3.854-3.739
				c0.046,0.03,0.066,0.006,0.06-0.044c-0.043-0.198,2.258-1.825,4.055-2.86c3.813-2.198,8.095-3.769,13.125-4.833
				c5.242-1.104,10.625-1.583,15.798-1.392c4.613,0.163,8.754,0.58,11.879,1.211c3.378,0.673,6.885,1.802,9.588,3.079
				c2.363,1.112,5.177,2.902,6.934,4.399c1.222,1.033,2.702,2.654,3.62,3.938c0.387,0.542,1.275,1.95,1.479,2.361
				c0.082,0.156,0.181,0.293,0.236,0.316c0.042,0.015,0.952-0.353,2.013-0.82c1.062-0.477,2.038-0.911,2.17-0.969
				c0.25-0.104,0.25-0.104,0.125-0.299c-0.491-0.778-2.097-2.818-3.219-4.084c-1.193-1.356-3.123-3.257-4.384-4.31
				c-0.262-0.222-0.469-0.427-0.454-0.451c0.015-0.021,0.006-0.03-0.017-0.006c-0.029,0.014-0.321-0.188-0.66-0.46
				c-1.84-1.49-4.611-3.258-6.898-4.407c-1.268-0.633-2.771-1.238-4.348-1.768c-4.186-1.384-8.518-2.148-14.661-2.567
				c-1.499-0.103-7.816-0.154-9.166-0.072c-8.982,0.549-16.804,2.454-23.193,5.652c-0.473,0.242-0.9,0.417-0.946,0.387
				c-0.044-0.03-0.058-0.023-0.034,0.023c0.028,0.043-0.368,0.308-0.928,0.616c-1.223,0.672-3.02,1.848-4.26,2.778
				c-3.922,2.947-7.706,7.413-9.466,11.181c-1.891,4.033-2.675,7.896-2.675,13.141c0,4.507,0.55,8.175,1.775,11.863
				c1.606,4.836,5.338,10.053,9.429,13.182c0.366,0.285,0.674,0.551,0.674,0.58c0,0.027,0.036,0.057,0.079,0.057
				c0.037,0,0.31,0.176,0.603,0.391c2.243,1.66,6.354,3.73,9.58,4.854c0.427,0.145,0.954,0.324,1.176,0.4
				c0.695,0.242,2.109,0.637,3.48,0.98c5.684,1.418,12.339,2.164,19.393,2.174c4.399,0.004,10.175,0.488,14.921,1.252
				c4.501,0.727,8.621,1.938,12.756,3.754c0.704,0.309,2.573,1.283,3.337,1.738c3.571,2.141,6.621,5,8.762,8.213
				c1.871,2.809,2.969,6.092,3.427,10.189c0.122,1.137,0.122,5.223,0,6.232c-0.405,3.252-1.107,5.713-2.326,8.139
				c-1.292,2.561-3.486,5.373-6.042,7.734c-1.305,1.195-3.694,2.971-5.065,3.762c-0.139,0.078-0.549,0.316-0.915,0.529
				c-1.966,1.145-4.935,2.471-7.568,3.371c-4.07,1.406-9.496,2.502-14.723,2.965c-4.576,0.408-9.692,0.357-13.783-0.15
				c-9.73-1.188-18.294-4.367-26.996-10.02c-0.378-0.244-0.663-0.469-0.631-0.518c0.02-0.041,0.005-0.051-0.038-0.021
				c-0.042,0.021-0.528-0.27-1.078-0.668c-0.548-0.395-1.078-0.768-1.161-0.828c-1.01-0.682-4.499-3.488-5.659-4.555
				c-1.357-1.246-1.45-1.318-1.57-1.217c-1.422,1.217-3.526,3.08-3.526,3.123C361.374,230.172,363,231.742,364.122,232.74z"/>
			<path d="M252.529,242.439c-0.467-0.219-0.917-0.74-1.246-1.443c-0.316-0.666-0.66-1.65-0.874-2.516
				c-0.104-0.412-0.117-4.129-0.117-36.146c0-22.787-0.029-36.291-0.073-37.346c-0.249-5.537-1.005-10.244-2.418-14.998
				c-0.888-2.998-1.753-5.195-3.086-7.881c-2.902-5.828-6.942-10.709-11.979-14.518c-0.984-0.74-3.037-2.103-4.032-2.676
				c-6.182-3.558-12.121-5.342-19.981-6.013c-1.605-0.14-6.738-0.206-8.211-0.108c-7.038,0.469-13.257,2.008-19.906,4.934
				c-6.657,2.917-13.726,6.812-19.861,10.916c-0.433,0.291-0.86,0.589-0.934,0.646c-0.123,0.104-0.057,0.212,1.299,2.017
				c0.793,1.048,1.458,1.927,1.489,1.963c0.029,0.028,0.303-0.117,0.6-0.321c1.782-1.239,4.129-2.78,5.772-3.777
				c10.645-6.497,21.034-10.368,30.292-11.285c3.63-0.357,7.892-0.263,11.623,0.258c6.326,0.884,12.091,3.116,17.135,6.621
				c0.595,0.408,1.173,0.826,1.283,0.93c0.117,0.102,0.329,0.262,0.467,0.358c0.603,0.434,2.744,2.348,3.586,3.212
				c1.187,1.225,2.353,2.59,2.296,2.684c-0.022,0.038-0.007,0.052,0.035,0.032c0.086-0.06,1.269,1.487,2.192,2.881
				c4.435,6.677,6.9,14.583,7.355,23.609c0.05,1.004,0.071,4.484,0.06,9.572l-0.023,8.002l-0.99-0.361
				c-2.867-1.053-7.706-2.42-13.599-3.836c-8.087-1.936-16.549-2.818-27.063-2.818c-5.133,0-8.337,0.211-12.75,0.848
				c-7.148,1.025-12.485,2.438-17.815,4.697c-7.216,3.074-12.45,6.961-16.842,12.488c-2.382,3.014-3.981,6.299-4.896,10.08
				c-1.614,6.65-1.093,14.576,1.372,21.117c0.706,1.863,1.973,4.553,2.719,5.775c0.17,0.271,0.309,0.514,0.309,0.533
				c0,0.059,1.489,2.324,1.929,2.928c2.669,3.672,6.137,7.01,9.839,9.473c5.182,3.445,11.181,5.771,17.288,6.695
				c4.869,0.738,11.049,0.645,17.538-0.266c8.027-1.121,16.644-3.725,23.352-7.066c7.523-3.738,13.674-8.721,19.238-15.568
				l0.411-0.506v5.971c0,6.123,0.031,7.018,0.293,8.227c0.609,2.809,2.494,5.266,4.883,6.387c0.917,0.436,2.039,0.729,3.103,0.814
				l0.595,0.049v-2.469v-2.467h-0.278C253.577,242.775,252.868,242.6,252.529,242.439z M245.286,200.939l-0.023,13.428l-0.184,0.842
				c-0.482,2.137-1.29,4.076-2.581,6.209c-0.504,0.838-1.958,3.012-2.315,3.482c-0.147,0.191-0.45,0.58-0.67,0.875
				c-0.893,1.172-1.634,2.01-3.093,3.459c-0.955,0.953-1.556,1.514-1.605,1.475c-0.053-0.029-0.068-0.021-0.044,0.023
				c0.065,0.104-0.212,0.344-0.323,0.271c-0.05-0.031-0.074-0.023-0.045,0.029c0.045,0.062-0.636,0.682-1.275,1.156
				c-0.108,0.072-0.578,0.426-1.041,0.777c-3.52,2.662-7.83,5.068-12.295,6.863c-7.479,3.006-15.683,4.779-24.452,5.293
				c-1.628,0.094-5.462,0.094-6.716,0c-4.009-0.309-7.926-1.227-11.613-2.713c-1.27-0.508-3.806-1.76-4.986-2.455
				c-4.633-2.74-8.426-6.285-11.263-10.523c-3.857-5.768-5.558-11.738-5.396-18.914c0.088-3.805,0.675-6.725,1.958-9.715
				c1.826-4.27,5.683-8.615,10.617-11.977c3.489-2.377,8.718-4.711,13.724-6.125c4.861-1.371,11.519-2.391,17.487-2.678
				c2.684-0.131,7.875-0.064,11.329,0.143c11.201,0.672,20.808,2.439,29.621,5.455c1.724,0.594,3.087,1.084,3.996,1.438
				c0.322,0.121,0.728,0.277,0.902,0.344l0.307,0.109L245.286,200.939z"/>
			<path d="M490.144,219.568c0.655,1.088,2.449,3.84,2.977,4.549c0.156,0.197,0.521,0.695,0.82,1.098
				c1.336,1.811,3.498,4.391,4.769,5.719c0.387,0.404,0.792,0.838,0.9,0.969c0.111,0.125,0.748,0.756,1.422,1.395
				c0.676,0.637,1.219,1.186,1.202,1.217c-0.006,0.033,0.017,0.045,0.052,0.021c0.036-0.021,0.111,0.016,0.161,0.082
				c0.318,0.381,2.808,2.463,4.396,3.658c4.312,3.264,9.427,6.188,14.039,8.02c5.406,2.148,10.441,3.287,16.608,3.756
				c1.57,0.117,6.166,0.117,7.625,0c6.846-0.559,13.234-2.053,19.354-4.539c5.31-2.156,9.883-4.773,13.86-7.939
				c5.542-4.416,9.75-9.576,12.469-15.297c0.543-1.145,1.094-2.486,1.028-2.506c-0.033-0.01-1.042-0.277-2.251-0.594
				c-1.203-0.316-2.229-0.59-2.275-0.602c-0.043-0.018-0.396,0.578-0.776,1.324c-0.382,0.748-0.828,1.576-0.997,1.855
				c-0.171,0.271-0.31,0.506-0.31,0.529c0,0.115-1.589,2.479-2.361,3.494c-3.357,4.459-8.204,8.66-13.733,11.902
				c-1.245,0.734-4.076,2.188-5.276,2.705c-5.911,2.576-11.908,4.115-18.221,4.68c-1.408,0.125-7.224,0.125-8.58,0
				c-8.183-0.756-14.861-2.918-21.776-7.037c-1.52-0.902-4.406-2.848-5.154-3.463c-0.053-0.043-0.338-0.256-0.638-0.482
				c-0.763-0.572-1.593-1.268-3.19-2.668c-0.154-0.141-0.571-0.521-0.917-0.844c-0.343-0.33-0.747-0.703-0.909-0.844
				c-0.233-0.221-1.01-1.033-2.639-2.785c-1.914-2.062-4.517-5.492-6.356-8.396c-3.242-5.096-5.917-10.977-7.684-16.861
				c-1.283-4.295-2.224-9.436-2.545-13.916l-0.051-0.711h58.122h58.111v-1.746c0-9.43-1.942-19.137-5.571-27.838
				c-2.437-5.844-5.376-10.888-9.269-15.911c-0.125-0.154-0.435-0.537-0.681-0.834c-0.25-0.303-0.435-0.581-0.411-0.616
				c0.021-0.044,0.008-0.051-0.029-0.031c-0.083,0.051-0.516-0.454-0.476-0.555c0.006-0.032-0.008-0.043-0.046-0.036
				c-0.027,0.013-0.416-0.388-0.856-0.896c-1.158-1.31-2.911-3.091-4.142-4.207c-1.079-0.974-2.785-2.449-3.15-2.719
				c-0.111-0.081-0.793-0.595-1.515-1.138c-2.806-2.117-5.987-4.074-9.429-5.8c-6.759-3.386-13.835-5.278-21.907-5.857
				c-1.488-0.11-6.629-0.154-8.028-0.073c-5.409,0.321-10.765,1.39-15.25,3.073c-2.938,1.091-4.566,1.861-7.845,3.672
				c-1.099,0.606-3.167,1.904-4.24,2.652c-0.395,0.28-0.751,0.477-0.798,0.454c-0.044-0.028-0.06-0.021-0.037,0.025
				c0.03,0.041-0.042,0.139-0.154,0.203c-0.413,0.265-2.78,2.096-3.496,2.714c-1.884,1.606-3.624,3.242-5,4.722
				c-1.116,1.188-3.051,3.433-3.632,4.211c-0.161,0.202-0.32,0.373-0.366,0.357c-0.035-0.01-0.048,0.007-0.03,0.043
				c0.015,0.03-0.152,0.308-0.382,0.607c-0.974,1.26-2.44,3.395-3.422,4.979c-3.272,5.264-5.94,11.227-7.773,17.342
				c-1.994,6.664-2.968,12.736-3.234,20.018c-0.103,3.02,0.293,8.086,0.931,11.766C482.613,203.887,485.693,212.129,490.144,219.568
				z M485.21,181.744c0-0.602,0.229-3.15,0.411-4.662c0.762-6.246,2.468-12.689,4.927-18.621
				c3.116-7.522,7.618-14.348,13.029-19.758c1.54-1.533,2.341-2.251,2.421-2.179c0.034,0.033,0.034,0.017,0.015-0.03
				c-0.064-0.107,0.212-0.351,0.319-0.277c0.053,0.029,0.076,0.022,0.038-0.03c-0.111-0.182,3.878-3.263,6.005-4.62
				c0.872-0.558,2.889-1.774,2.94-1.774c0.021,0,0.13-0.058,0.232-0.131c0.273-0.192,1.343-0.763,2.399-1.283
				c5.705-2.832,11.862-4.348,18.879-4.672c1.52-0.066,4.56-0.03,6.343,0.079c8.636,0.53,16.628,2.928,23.828,7.153
				c0.896,0.526,0.822,0.48,1.792,1.091c7.215,4.51,13.456,11.056,18.188,19.062c4.787,8.103,7.802,17.179,8.871,26.671
				c0.156,1.373,0.368,3.74,0.368,4.094v0.213h-55.504H485.21V181.744z"/>
			<path d="M311.858,137.338c0.053-0.037,0.449-0.354,0.88-0.699c0.441-0.334,0.843-0.667,0.901-0.715
				c0.301-0.275,2.523-1.798,3.556-2.442c1.914-1.195,4.334-2.495,6.086-3.264c0.361-0.162,0.794-0.354,0.954-0.423
				c1.649-0.749,4.917-1.879,7.03-2.421c3.035-0.778,6.546-1.366,9.613-1.606c0.528-0.044,1.225-0.098,1.56-0.124l0.603-0.042v-2.45
				v-2.449h-1.172c-1.9,0-4.546,0.19-6.747,0.485c-8.63,1.149-16.065,4.149-22.767,9.179c-1.136,0.858-2.3,1.788-3.066,2.471
				c-0.278,0.242-0.533,0.434-0.571,0.417c-0.035-0.007-0.058,0.008-0.051,0.036c0.017,0.036-0.372,0.423-0.857,0.88
				c-2.676,2.485-5.467,5.593-7.515,8.343c-0.177,0.244-0.358,0.476-0.402,0.528c-0.037,0.041-0.368,0.513-0.734,1.033
				c-0.359,0.526-0.69,0.939-0.727,0.918c-0.036-0.03-0.042-0.011-0.013,0.035c0.023,0.035-0.132,0.335-0.354,0.652
				c-1.136,1.656-2.772,4.426-3.916,6.619c-0.264,0.508-0.508,0.945-0.532,0.99c-0.04,0.035-0.066-7.258-0.066-16.263v-16.328
				h-2.457h-2.456v63.493v63.498h2.456h2.457v-40.08v-40.074l0.226-0.783c1.225-4.209,2.609-7.838,4.4-11.52
				c2.931-6.02,6.077-10.528,10.33-14.818C309.6,139.311,311.061,137.967,311.858,137.338z"/>
		</g>
	</g>
</g>
</svg>
